<?xml version="1.0" encoding="UTF-8"?><svg width="32px" height="32px" viewBox="0 0 32 32" version="1.1" xmlns="http://www.w3.org/2000/svg"><title>AITable Node Icon</title><g stroke="none" stroke-width="1" fill="none" fill-rule="evenodd"><rect fill="#3370FF" x="0" y="0" width="32" height="32" rx="4"></rect><g transform="translate(4, 8)" fill="#FFFFFF"><path d="M4,0 L20,0 C22.2,0 24,1.8 24,4 L24,12 C24,14.2 22.2,16 20,16 L4,16 C1.8,16 0,14.2 0,12 L0,4 C0,1.8 1.8,0 4,0 Z M4,2 C2.9,2 2,2.9 2,4 L2,12 C2,13.1 2.9,14 4,14 L20,14 C21.1,14 22,13.1 22,12 L22,4 C22,2.9 21.1,2 20,2 L4,2 Z"></path><path d="M6,4 L10,4 L10,12 L8,12 L8,6 L6,6 L6,4 Z"></path><path d="M12,4 L12,12 L14,12 L14,4 L12,4 Z"></path><path d="M16,4 L20,4 L20,6 L18,6 L18,12 L16,12 L16,4 Z"></path></g></g></svg>
